<?xml version="1.0" encoding="UTF-8" standalone="no"?>
<!-- Created with Inkscape (http://www.inkscape.org/) -->

<svg
   xmlns:dc="http://purl.org/dc/elements/1.1/"
   xmlns:cc="http://creativecommons.org/ns#"
   xmlns:rdf="http://www.w3.org/1999/02/22-rdf-syntax-ns#"
   xmlns:svg="http://www.w3.org/2000/svg"
   xmlns="http://www.w3.org/2000/svg"
   xmlns:sodipodi="http://sodipodi.sourceforge.net/DTD/sodipodi-0.dtd"
   xmlns:inkscape="http://www.inkscape.org/namespaces/inkscape"
   id="svg2"
   version="1.1"
   inkscape:version="0.47 r22583"
   width="64"
   height="64"
   sodipodi:docname="Twitch.svg"
   inkscape:export-filename="/home/bengt/Projekte/FactoryTiles/bot/Twitch/64/Twitch.png"
   inkscape:export-xdpi="90"
   inkscape:export-ydpi="90">
  <metadata
     id="metadata8">
    <rdf:RDF>
      <cc:Work
         rdf:about="">
        <dc:format>image/svg+xml</dc:format>
        <dc:type
           rdf:resource="http://purl.org/dc/dcmitype/StillImage" />
        <dc:title></dc:title>
      </cc:Work>
    </rdf:RDF>
  </metadata>
  <defs
     id="defs6">
    <inkscape:perspective
       sodipodi:type="inkscape:persp3d"
       inkscape:vp_x="0 : 0.5 : 1"
       inkscape:vp_y="0 : 1000 : 0"
       inkscape:vp_z="1 : 0.5 : 1"
       inkscape:persp3d-origin="0.5 : 0.33333333 : 1"
       id="perspective10" />
  </defs>
  <sodipodi:namedview
     pagecolor="#ffffff"
     bordercolor="#666666"
     borderopacity="1"
     objecttolerance="10"
     gridtolerance="10"
     guidetolerance="10"
     inkscape:pageopacity="0"
     inkscape:pageshadow="2"
     inkscape:window-width="1280"
     inkscape:window-height="949"
     id="namedview4"
     showgrid="true"
     borderlayer="true"
     inkscape:showpageshadow="false"
     inkscape:zoom="7.45"
     inkscape:cx="36.663181"
     inkscape:cy="43.867406"
     inkscape:window-x="0"
     inkscape:window-y="0"
     inkscape:window-maximized="1"
     inkscape:current-layer="svg2">
    <inkscape:grid
       type="xygrid"
       id="grid2818"
       empspacing="8"
       visible="true"
       enabled="true"
       snapvisiblegridlinesonly="true"
       spacingy="1px"
       spacingx="1px" />
  </sodipodi:namedview>
  <g
     transform="translate(28,0)"
     id="g3606">
    <rect
       y="8"
       x="11"
       height="48"
       width="13"
       id="rect3608"
       style="fill:#000000;fill-opacity:1;stroke:none" />
    <rect
       style="fill:#ffffff;fill-opacity:1;stroke:none"
       id="rect3610"
       width="11"
       height="46"
       x="12"
       y="9" />
  </g>
  <rect
     style="fill:#000000;fill-opacity:1;stroke:none"
     id="rect3728"
     width="11"
     height="1"
     x="40"
     y="10" />
  <rect
     y="12"
     x="40"
     height="1"
     width="11"
     id="rect3730"
     style="fill:#000000;fill-opacity:1;stroke:none" />
  <rect
     style="fill:#000000;fill-opacity:1;stroke:none"
     id="rect3732"
     width="11"
     height="1"
     x="40"
     y="14" />
  <rect
     y="16"
     x="40"
     height="1"
     width="11"
     id="rect3734"
     style="fill:#000000;fill-opacity:1;stroke:none" />
  <rect
     style="fill:#000000;fill-opacity:1;stroke:none"
     id="rect3736"
     width="11"
     height="1"
     x="40"
     y="18" />
  <rect
     y="20"
     x="40"
     height="1"
     width="11"
     id="rect3738"
     style="fill:#000000;fill-opacity:1;stroke:none" />
  <rect
     style="fill:#000000;fill-opacity:1;stroke:none"
     id="rect3740"
     width="11"
     height="1"
     x="40"
     y="22" />
  <rect
     y="24"
     x="40"
     height="1"
     width="11"
     id="rect3742"
     style="fill:#000000;fill-opacity:1;stroke:none" />
  <rect
     style="fill:#000000;fill-opacity:1;stroke:none"
     id="rect3744"
     width="11"
     height="1"
     x="40"
     y="26" />
  <rect
     y="29"
     x="40"
     height="1"
     width="11"
     id="rect3746"
     style="fill:#000000;fill-opacity:1;stroke:none" />
  <rect
     style="fill:#000000;fill-opacity:1;stroke:none"
     id="rect3748"
     width="11"
     height="1"
     x="40"
     y="31" />
  <rect
     y="33"
     x="40"
     height="1"
     width="11"
     id="rect3750"
     style="fill:#000000;fill-opacity:1;stroke:none" />
  <rect
     style="fill:#000000;fill-opacity:1;stroke:none"
     id="rect3752"
     width="11"
     height="1"
     x="40"
     y="35" />
  <rect
     y="37"
     x="40"
     height="1"
     width="11"
     id="rect3754"
     style="fill:#000000;fill-opacity:1;stroke:none" />
  <rect
     style="fill:#000000;fill-opacity:1;stroke:none"
     id="rect3756"
     width="11"
     height="1"
     x="40"
     y="39" />
  <g
     id="g3596">
    <rect
       y="8"
       x="12"
       height="48"
       width="13"
       id="rect2820"
       style="fill:#000000;fill-opacity:1;stroke:none" />
    <rect
       style="fill:#ffffff;fill-opacity:1;stroke:none"
       id="rect3594"
       width="11"
       height="46"
       x="13"
       y="9" />
  </g>
  <rect
     style="fill:#000000;fill-opacity:1;stroke:none"
     id="rect3634"
     width="11"
     height="1"
     x="13"
     y="10" />
  <rect
     y="12"
     x="13"
     height="1"
     width="11"
     id="rect3636"
     style="fill:#000000;fill-opacity:1;stroke:none" />
  <rect
     style="fill:#000000;fill-opacity:1;stroke:none"
     id="rect3638"
     width="11"
     height="1"
     x="13"
     y="14" />
  <rect
     y="16"
     x="13"
     height="1"
     width="11"
     id="rect3640"
     style="fill:#000000;fill-opacity:1;stroke:none" />
  <rect
     style="fill:#000000;fill-opacity:1;stroke:none"
     id="rect3642"
     width="11"
     height="1"
     x="13"
     y="18" />
  <rect
     y="20"
     x="13"
     height="1"
     width="11"
     id="rect3644"
     style="fill:#000000;fill-opacity:1;stroke:none" />
  <rect
     style="fill:#000000;fill-opacity:1;stroke:none"
     id="rect3646"
     width="11"
     height="1"
     x="13"
     y="22" />
  <rect
     y="24"
     x="13"
     height="1"
     width="11"
     id="rect3648"
     style="fill:#000000;fill-opacity:1;stroke:none" />
  <rect
     style="fill:#000000;fill-opacity:1;stroke:none"
     id="rect3650"
     width="11"
     height="1"
     x="13"
     y="26" />
  <rect
     y="29"
     x="13"
     height="1"
     width="11"
     id="rect3652"
     style="fill:#000000;fill-opacity:1;stroke:none" />
  <rect
     style="fill:#000000;fill-opacity:1;stroke:none"
     id="rect3654"
     width="11"
     height="1"
     x="13"
     y="31" />
  <rect
     y="33"
     x="13"
     height="1"
     width="11"
     id="rect3656"
     style="fill:#000000;fill-opacity:1;stroke:none" />
  <rect
     style="fill:#000000;fill-opacity:1;stroke:none"
     id="rect3658"
     width="11"
     height="1"
     x="13"
     y="35" />
  <rect
     y="37"
     x="13"
     height="1"
     width="11"
     id="rect3660"
     style="fill:#000000;fill-opacity:1;stroke:none" />
  <rect
     style="fill:#000000;fill-opacity:1;stroke:none"
     id="rect3662"
     width="11"
     height="1"
     x="13"
     y="39" />
  <rect
     y="41"
     x="13"
     height="1"
     width="11"
     id="rect3664"
     style="fill:#000000;fill-opacity:1;stroke:none" />
  <rect
     style="fill:#000000;fill-opacity:1;stroke:none"
     id="rect3666"
     width="11"
     height="1"
     x="13"
     y="43" />
  <rect
     y="45"
     x="13"
     height="1"
     width="11"
     id="rect3668"
     style="fill:#000000;fill-opacity:1;stroke:none" />
  <rect
     y="41"
     x="40"
     height="1"
     width="11"
     id="rect3758"
     style="fill:#000000;fill-opacity:1;stroke:none" />
  <rect
     style="fill:#000000;fill-opacity:1;stroke:none"
     id="rect3614"
     width="16"
     height="44"
     x="24"
     y="10" />
  <rect
     style="fill:#000000;fill-opacity:1;stroke:none"
     id="rect3670"
     width="11"
     height="1"
     x="13"
     y="47" />
  <rect
     y="49"
     x="13"
     height="1"
     width="11"
     id="rect3672"
     style="fill:#000000;fill-opacity:1;stroke:none" />
  <g
     id="g3600"
     transform="translate(13,0)">
    <rect
       style="fill:#000000;fill-opacity:1;stroke:none"
       id="rect3602"
       width="12"
       height="48"
       x="13"
       y="8" />
    <rect
       y="9"
       x="14"
       height="46"
       width="10"
       id="rect3604"
       style="fill:#ffffff;fill-opacity:1;stroke:none" />
  </g>
  <rect
     style="fill:#000000;fill-opacity:1;stroke:none"
     id="rect3760"
     width="11"
     height="1"
     x="40"
     y="43" />
  <rect
     y="45"
     x="40"
     height="1"
     width="11"
     id="rect3762"
     style="fill:#000000;fill-opacity:1;stroke:none" />
  <rect
     style="fill:#000000;fill-opacity:1;stroke:none"
     id="rect3616"
     width="32"
     height="32"
     x="16"
     y="16" />
  <rect
     style="fill:#000000;fill-opacity:1;stroke:none"
     id="rect3674"
     width="11"
     height="1"
     x="13"
     y="51" />
  <rect
     style="fill:#000000;fill-opacity:1;stroke:none"
     id="rect3764"
     width="11"
     height="1"
     x="40"
     y="47" />
  <rect
     y="17"
     x="17"
     height="30"
     width="30"
     id="rect3618"
     style="fill:#ffffff;fill-opacity:1;stroke:none" />
  <rect
     y="53"
     x="13"
     height="1"
     width="11"
     id="rect3676"
     style="fill:#000000;fill-opacity:1;stroke:none" />
  <rect
     y="49"
     x="40"
     height="1"
     width="11"
     id="rect3766"
     style="fill:#000000;fill-opacity:1;stroke:none" />
  <rect
     y="20"
     x="20"
     height="24"
     width="24"
     id="rect3620"
     style="fill:#000000;fill-opacity:1;stroke:none" />
  <rect
     style="fill:#000000;fill-opacity:1;stroke:none"
     id="rect3768"
     width="11"
     height="1"
     x="40"
     y="51" />
  <rect
     style="fill:#ffffff;fill-opacity:1;stroke:none"
     id="rect3622"
     width="22"
     height="22"
     x="21"
     y="21" />
  <path
     style="fill:none;stroke:#000000;stroke-width:1px;stroke-linecap:butt;stroke-linejoin:miter;stroke-opacity:1"
     d="M 21,21 17,17"
     id="path3626"
     sodipodi:nodetypes="cc" />
  <rect
     y="53"
     x="40"
     height="1"
     width="11"
     id="rect3770"
     style="fill:#000000;fill-opacity:1;stroke:none" />
  <path
     style="fill:none;stroke:#000000;stroke-width:1px;stroke-linecap:butt;stroke-linejoin:miter;stroke-opacity:1"
     d="m 43,21 4,-4"
     id="path3628"
     sodipodi:nodetypes="cc" />
  <path
     style="fill:none;stroke:#000000;stroke-width:1px;stroke-linecap:butt;stroke-linejoin:miter;stroke-opacity:1"
     d="m 43,43 4,4"
     id="path3630"
     sodipodi:nodetypes="cc" />
  <path
     style="fill:none;stroke:#000000;stroke-width:1px;stroke-linecap:butt;stroke-linejoin:miter;stroke-opacity:1"
     d="M 20.92246,43.010695 17,47"
     id="path3632" />
  <rect
     y="10"
     x="27"
     height="1"
     width="11"
     id="rect3684"
     style="fill:#000000;fill-opacity:1;stroke:none" />
  <rect
     style="fill:#000000;fill-opacity:1;stroke:none"
     id="rect3686"
     width="11"
     height="1"
     x="27"
     y="12" />
  <rect
     y="14"
     x="27"
     height="1"
     width="11"
     id="rect3688"
     style="fill:#000000;fill-opacity:1;stroke:none" />
  <rect
     style="fill:#000000;fill-opacity:1;stroke:none"
     id="rect3722"
     width="11"
     height="1"
     x="27"
     y="49" />
  <rect
     y="51"
     x="27"
     height="1"
     width="11"
     id="rect3724"
     style="fill:#000000;fill-opacity:1;stroke:none" />
  <rect
     style="fill:#000000;fill-opacity:1;stroke:none"
     id="rect3726"
     width="11"
     height="1"
     x="27"
     y="53" />
  <g
     id="g3778">
    <path
       sodipodi:nodetypes="czzzz"
       id="path3772"
       d="m 19,33 c 0,-2.5 0,-5.5 -1.5,-5.5 -1.489172,0 -3,2 -3,5.5 0,3.338989 1.508869,6 3,6 1.5,0 1.5,-3.370131 1.5,-6 z"
       style="fill:#ffffff;stroke:#000000;stroke-width:1px;stroke-linecap:butt;stroke-linejoin:miter;stroke-opacity:1;fill-opacity:1" />
    <path
       sodipodi:nodetypes="ccccccc"
       id="path3774"
       d="m 15,30 1,-2 -2,-2 -2,0 0,1 1,0 2,3 z"
       style="fill:#ffffff;stroke:#000000;stroke-width:1px;stroke-linecap:butt;stroke-linejoin:miter;stroke-opacity:1;fill-opacity:1" />
    <path
       style="fill:#ffffff;fill-opacity:1;stroke:#000000;stroke-width:1px;stroke-linecap:butt;stroke-linejoin:miter;stroke-opacity:1"
       d="m 15,36 1,2 -2,2 -2,0 0,-1 1,0 2,-3 z"
       id="path3776" />
  </g>
  <g
     id="g3783"
     transform="matrix(-1,0,0,1,64,0)">
    <path
       style="fill:#ffffff;fill-opacity:1;stroke:#000000;stroke-width:1px;stroke-linecap:butt;stroke-linejoin:miter;stroke-opacity:1"
       d="m 19,33 c 0,-2.5 0,-5.5 -1.5,-5.5 -1.489172,0 -3,2 -3,5.5 0,3.338989 1.508869,6 3,6 1.5,0 1.5,-3.370131 1.5,-6 z"
       id="path3785"
       sodipodi:nodetypes="czzzz" />
    <path
       style="fill:#ffffff;fill-opacity:1;stroke:#000000;stroke-width:1px;stroke-linecap:butt;stroke-linejoin:miter;stroke-opacity:1"
       d="m 15,30 1,-2 -2,-2 -2,0 0,1 1,0 2,3 z"
       id="path3787"
       sodipodi:nodetypes="ccccccc" />
    <path
       id="path3789"
       d="m 15,36 1,2 -2,2 -2,0 0,-1 1,0 2,-3 z"
       style="fill:#ffffff;fill-opacity:1;stroke:#000000;stroke-width:1px;stroke-linecap:butt;stroke-linejoin:miter;stroke-opacity:1" />
  </g>
  <rect
     style="fill:#000000;fill-opacity:1;stroke:none"
     id="rect3841"
     width="7"
     height="27"
     x="24"
     y="18"
     ry="2" />
  <rect
     ry="1"
     y="19"
     x="25"
     height="25"
     width="5"
     id="rect3845"
     style="fill:#ffffff;fill-opacity:1;stroke:none" />
  <rect
     ry="2"
     y="18"
     x="33"
     height="27"
     width="7"
     id="rect3847"
     style="fill:#000000;fill-opacity:1;stroke:none" />
  <rect
     style="fill:#ffffff;fill-opacity:1;stroke:none"
     id="rect3849"
     width="5"
     height="25"
     x="34"
     y="19"
     ry="1" />
  <rect
     style="fill:#000000;fill-opacity:1;stroke:none"
     id="rect3791"
     width="6"
     height="8"
     x="29"
     y="28" />
  <rect
     y="29"
     x="30"
     height="6"
     width="4"
     id="rect3793"
     style="fill:#ffffff;fill-opacity:1;stroke:none" />
  <path
     style="fill:none;stroke:#000000;stroke-width:1px;stroke-linecap:butt;stroke-linejoin:miter;stroke-opacity:1"
     d="m 26,18 1,0"
     id="path3853" />
  <path
     style="fill:none;stroke:#000000;stroke-width:1px;stroke-linecap:butt;stroke-linejoin:miter;stroke-opacity:1"
     d="m 28,18 1,0"
     id="path3855"
     sodipodi:nodetypes="cc" />
  <path
     style="fill:none;stroke:#000000;stroke-width:1px;stroke-linecap:butt;stroke-linejoin:miter;stroke-opacity:1"
     d="m 35,18 1,0"
     id="path3857"
     sodipodi:nodetypes="cc" />
  <path
     style="fill:none;stroke:#000000;stroke-width:1px;stroke-linecap:butt;stroke-linejoin:miter;stroke-opacity:1"
     d="m 37,18 1,0"
     id="path3859" />
</svg>
