<?xml version="1.0" encoding="UTF-8" standalone="no"?>
<!-- Created with Inkscape (http://www.inkscape.org/) -->

<svg
   xmlns:dc="http://purl.org/dc/elements/1.1/"
   xmlns:cc="http://creativecommons.org/ns#"
   xmlns:rdf="http://www.w3.org/1999/02/22-rdf-syntax-ns#"
   xmlns:svg="http://www.w3.org/2000/svg"
   xmlns="http://www.w3.org/2000/svg"
   xmlns:xlink="http://www.w3.org/1999/xlink"
   xmlns:sodipodi="http://sodipodi.sourceforge.net/DTD/sodipodi-0.dtd"
   xmlns:inkscape="http://www.inkscape.org/namespaces/inkscape"
   width="64px"
   height="64px"
   id="svg2830"
   version="1.1"
   inkscape:version="0.47 r22583"
   sodipodi:docname="nook.svg"
   inkscape:export-filename="/home/bengt/Projekte/FactoryTiles/floor/abyss/64/single.png"
   inkscape:export-xdpi="90"
   inkscape:export-ydpi="90">
  <defs
     id="defs2832">
    <linearGradient
       inkscape:collect="always"
       id="linearGradient3949">
      <stop
         style="stop-color:#000000;stop-opacity:1;"
         offset="0"
         id="stop3951" />
      <stop
         style="stop-color:#000000;stop-opacity:0;"
         offset="1"
         id="stop3953" />
    </linearGradient>
    <linearGradient
       id="linearGradient5032">
      <stop
         style="stop-color:#000000;stop-opacity:1;"
         offset="0"
         id="stop5034" />
      <stop
         style="stop-color:#000000;stop-opacity:0;"
         offset="1"
         id="stop5036" />
    </linearGradient>
    <linearGradient
       id="linearGradient4987">
      <stop
         style="stop-color:#484031;stop-opacity:1;"
         offset="0"
         id="stop4989" />
      <stop
         id="stop4999"
         offset="0.08953264"
         style="stop-color:#685c46;stop-opacity:1;" />
      <stop
         style="stop-color:#685c46;stop-opacity:1;"
         offset="1"
         id="stop4991" />
    </linearGradient>
    <linearGradient
       id="linearGradient4947">
      <stop
         style="stop-color:#685c46;stop-opacity:1"
         offset="0"
         id="stop4949" />
      <stop
         id="stop4959"
         offset="0.09910436"
         style="stop-color:#bdb29d;stop-opacity:1;" />
      <stop
         id="stop4957"
         offset="0.49269861"
         style="stop-color:#685c46;stop-opacity:1;" />
      <stop
         style="stop-color:#685c46;stop-opacity:1;"
         offset="0.75"
         id="stop4961" />
      <stop
         style="stop-color:#685c46;stop-opacity:1;"
         offset="1"
         id="stop4951" />
    </linearGradient>
    <inkscape:perspective
       sodipodi:type="inkscape:persp3d"
       inkscape:vp_x="0 : 32 : 1"
       inkscape:vp_y="0 : 1000 : 0"
       inkscape:vp_z="64 : 32 : 1"
       inkscape:persp3d-origin="32 : 21.333333 : 1"
       id="perspective2838" />
    <inkscape:perspective
       id="perspective2848"
       inkscape:persp3d-origin="0.5 : 0.33333333 : 1"
       inkscape:vp_z="1 : 0.5 : 1"
       inkscape:vp_y="0 : 1000 : 0"
       inkscape:vp_x="0 : 0.5 : 1"
       sodipodi:type="inkscape:persp3d" />
    <inkscape:perspective
       id="perspective4321"
       inkscape:persp3d-origin="0.5 : 0.33333333 : 1"
       inkscape:vp_z="1 : 0.5 : 1"
       inkscape:vp_y="0 : 1000 : 0"
       inkscape:vp_x="0 : 0.5 : 1"
       sodipodi:type="inkscape:persp3d" />
    <inkscape:perspective
       id="perspective4321-5"
       inkscape:persp3d-origin="0.5 : 0.33333333 : 1"
       inkscape:vp_z="1 : 0.5 : 1"
       inkscape:vp_y="0 : 1000 : 0"
       inkscape:vp_x="0 : 0.5 : 1"
       sodipodi:type="inkscape:persp3d" />
    <inkscape:perspective
       id="perspective4321-2"
       inkscape:persp3d-origin="0.5 : 0.33333333 : 1"
       inkscape:vp_z="1 : 0.5 : 1"
       inkscape:vp_y="0 : 1000 : 0"
       inkscape:vp_x="0 : 0.5 : 1"
       sodipodi:type="inkscape:persp3d" />
    <inkscape:perspective
       id="perspective4573"
       inkscape:persp3d-origin="0.5 : 0.33333333 : 1"
       inkscape:vp_z="1 : 0.5 : 1"
       inkscape:vp_y="0 : 1000 : 0"
       inkscape:vp_x="0 : 0.5 : 1"
       sodipodi:type="inkscape:persp3d" />
    <inkscape:perspective
       id="perspective4596"
       inkscape:persp3d-origin="0.5 : 0.33333333 : 1"
       inkscape:vp_z="1 : 0.5 : 1"
       inkscape:vp_y="0 : 1000 : 0"
       inkscape:vp_x="0 : 0.5 : 1"
       sodipodi:type="inkscape:persp3d" />
    <inkscape:perspective
       id="perspective4620"
       inkscape:persp3d-origin="0.5 : 0.33333333 : 1"
       inkscape:vp_z="1 : 0.5 : 1"
       inkscape:vp_y="0 : 1000 : 0"
       inkscape:vp_x="0 : 0.5 : 1"
       sodipodi:type="inkscape:persp3d" />
    <inkscape:perspective
       id="perspective4643"
       inkscape:persp3d-origin="0.5 : 0.33333333 : 1"
       inkscape:vp_z="1 : 0.5 : 1"
       inkscape:vp_y="0 : 1000 : 0"
       inkscape:vp_x="0 : 0.5 : 1"
       sodipodi:type="inkscape:persp3d" />
    <inkscape:perspective
       id="perspective4666"
       inkscape:persp3d-origin="0.5 : 0.33333333 : 1"
       inkscape:vp_z="1 : 0.5 : 1"
       inkscape:vp_y="0 : 1000 : 0"
       inkscape:vp_x="0 : 0.5 : 1"
       sodipodi:type="inkscape:persp3d" />
    <inkscape:perspective
       id="perspective4689"
       inkscape:persp3d-origin="0.5 : 0.33333333 : 1"
       inkscape:vp_z="1 : 0.5 : 1"
       inkscape:vp_y="0 : 1000 : 0"
       inkscape:vp_x="0 : 0.5 : 1"
       sodipodi:type="inkscape:persp3d" />
    <inkscape:perspective
       id="perspective4689-7"
       inkscape:persp3d-origin="0.5 : 0.33333333 : 1"
       inkscape:vp_z="1 : 0.5 : 1"
       inkscape:vp_y="0 : 1000 : 0"
       inkscape:vp_x="0 : 0.5 : 1"
       sodipodi:type="inkscape:persp3d" />
    <inkscape:perspective
       id="perspective4722"
       inkscape:persp3d-origin="0.5 : 0.33333333 : 1"
       inkscape:vp_z="1 : 0.5 : 1"
       inkscape:vp_y="0 : 1000 : 0"
       inkscape:vp_x="0 : 0.5 : 1"
       sodipodi:type="inkscape:persp3d" />
    <linearGradient
       inkscape:collect="always"
       xlink:href="#linearGradient4987"
       id="linearGradient5085"
       gradientUnits="userSpaceOnUse"
       gradientTransform="matrix(-1,0,0,-1,64,64)"
       x1="24"
       y1="40"
       x2="41"
       y2="56" />
    <linearGradient
       inkscape:collect="always"
       xlink:href="#linearGradient4987"
       id="linearGradient5089"
       gradientUnits="userSpaceOnUse"
       gradientTransform="matrix(0,-1,1,0,0,64)"
       x1="40"
       y1="40"
       x2="24"
       y2="56" />
    <linearGradient
       inkscape:collect="always"
       xlink:href="#linearGradient4987"
       id="linearGradient3687"
       gradientUnits="userSpaceOnUse"
       gradientTransform="matrix(-1,0,0,-1,79,47)"
       x1="24"
       y1="40"
       x2="41"
       y2="56" />
    <inkscape:perspective
       id="perspective3759"
       inkscape:persp3d-origin="0.5 : 0.33333333 : 1"
       inkscape:vp_z="1 : 0.5 : 1"
       inkscape:vp_y="0 : 1000 : 0"
       inkscape:vp_x="0 : 0.5 : 1"
       sodipodi:type="inkscape:persp3d" />
    <inkscape:perspective
       id="perspective3784"
       inkscape:persp3d-origin="0.5 : 0.33333333 : 1"
       inkscape:vp_z="1 : 0.5 : 1"
       inkscape:vp_y="0 : 1000 : 0"
       inkscape:vp_x="0 : 0.5 : 1"
       sodipodi:type="inkscape:persp3d" />
    <inkscape:perspective
       id="perspective3813"
       inkscape:persp3d-origin="0.5 : 0.33333333 : 1"
       inkscape:vp_z="1 : 0.5 : 1"
       inkscape:vp_y="0 : 1000 : 0"
       inkscape:vp_x="0 : 0.5 : 1"
       sodipodi:type="inkscape:persp3d" />
    <inkscape:perspective
       id="perspective3899"
       inkscape:persp3d-origin="0.5 : 0.33333333 : 1"
       inkscape:vp_z="1 : 0.5 : 1"
       inkscape:vp_y="0 : 1000 : 0"
       inkscape:vp_x="0 : 0.5 : 1"
       sodipodi:type="inkscape:persp3d" />
    <inkscape:perspective
       id="perspective5486"
       inkscape:persp3d-origin="0.5 : 0.33333333 : 1"
       inkscape:vp_z="1 : 0.5 : 1"
       inkscape:vp_y="0 : 1000 : 0"
       inkscape:vp_x="0 : 0.5 : 1"
       sodipodi:type="inkscape:persp3d" />
    <linearGradient
       inkscape:collect="always"
       xlink:href="#linearGradient5032-0"
       id="linearGradient5467"
       x1="5"
       y1="34"
       x2="69"
       y2="34"
       gradientUnits="userSpaceOnUse" />
    <linearGradient
       id="linearGradient5032-0">
      <stop
         style="stop-color:#000000;stop-opacity:1;"
         offset="0"
         id="stop5034-1" />
      <stop
         style="stop-color:#000000;stop-opacity:0;"
         offset="1"
         id="stop5036-4" />
    </linearGradient>
    <radialGradient
       inkscape:collect="always"
       xlink:href="#linearGradient5032"
       id="radialGradient3942"
       gradientUnits="userSpaceOnUse"
       gradientTransform="matrix(1.3333333,0,0,1.3333333,-12.666665,-8.666666)"
       cx="32"
       cy="32"
       fx="32"
       fy="32"
       r="24" />
    <linearGradient
       inkscape:collect="always"
       xlink:href="#linearGradient3949"
       id="linearGradient3947"
       gradientUnits="userSpaceOnUse"
       gradientTransform="translate(-59,-38.999998)"
       x1="25"
       y1="69"
       x2="57"
       y2="69" />
    <linearGradient
       inkscape:collect="always"
       xlink:href="#linearGradient3949"
       id="linearGradient3959"
       gradientUnits="userSpaceOnUse"
       gradientTransform="translate(-7.0000002,35.000003)"
       x1="37"
       y1="69"
       x2="69"
       y2="69" />
    <filter
       inkscape:collect="always"
       id="filter3972">
      <feGaussianBlur
         inkscape:collect="always"
         stdDeviation="0.63"
         id="feGaussianBlur3974" />
    </filter>
  </defs>
  <sodipodi:namedview
     id="base"
     pagecolor="#ffffff"
     bordercolor="#666666"
     borderopacity="1.0"
     inkscape:pageopacity="0.0"
     inkscape:pageshadow="2"
     inkscape:zoom="6.49"
     inkscape:cx="29.477578"
     inkscape:cy="35.17098"
     inkscape:current-layer="layer1"
     showgrid="false"
     inkscape:document-units="px"
     inkscape:grid-bbox="true"
     showborder="true"
     inkscape:showpageshadow="false"
     borderlayer="false"
     showguides="true"
     inkscape:guide-bbox="true"
     inkscape:window-width="1280"
     inkscape:window-height="949"
     inkscape:window-x="0"
     inkscape:window-y="0"
     inkscape:window-maximized="1">
    <inkscape:grid
       type="xygrid"
       id="grid2854"
       empspacing="5"
       visible="true"
       enabled="true"
       snapvisiblegridlinesonly="true" />
  </sodipodi:namedview>
  <metadata
     id="metadata2835">
    <rdf:RDF>
      <cc:Work
         rdf:about="">
        <dc:format>image/svg+xml</dc:format>
        <dc:type
           rdf:resource="http://purl.org/dc/dcmitype/StillImage" />
        <dc:title></dc:title>
      </cc:Work>
    </rdf:RDF>
  </metadata>
  <g
     id="layer1"
     inkscape:label="Layer 1"
     inkscape:groupmode="layer">
    <rect
       style="fill:#443c2f;fill-opacity:1;stroke:none"
       id="rect3962"
       width="56"
       height="56"
       x="0"
       y="8" />
    <path
       style="fill:#000000;fill-opacity:1;stroke:none;stroke-opacity:1;stroke-width:2;stroke-miterlimit:4;stroke-dasharray:none"
       d="M 0 0 L 0 1 L 1 1 L 63 1 L 63 63 L 63 64 L 64 64 L 64 0 L 0 0 z "
       id="rect4085" />
    <path
       id="path5087"
       d="M 40,64 56,64 56,8 40,24 40,64 z"
       style="fill:url(#linearGradient5089);fill-opacity:1;stroke:none"
       sodipodi:nodetypes="ccccc" />
    <path
       sodipodi:nodetypes="ccccc"
       style="fill:url(#linearGradient5085);fill-opacity:1;stroke:none"
       d="M 40,24 56,7.9999999 0,8 0,24 40,24 z"
       id="path5083" />
    <path
       style="fill:#000000;fill-opacity:1;stroke:none;opacity:0.4;filter:url(#filter3972)"
       d="m 0,1 0,9 54,0 0,54 9,0 L 63,1 0,1 z"
       id="rect5059"
       sodipodi:nodetypes="ccccccc" />
    <rect
       y="24"
       x="0"
       height="40"
       width="40"
       id="rect3630"
       style="fill:#ac7970;fill-opacity:1;stroke:none" />
    <rect
       y="-40"
       x="-54"
       height="70"
       width="64"
       id="rect3936"
       style="opacity:0.75;fill:url(#linearGradient3947);fill-opacity:1;stroke:none"
       transform="matrix(0,-1,1,0,0,0)" />
    <path
       style="fill:#f2c430;fill-opacity:1;stroke:none"
       d="m 15,8 4,0 2,-7 -4,0 -2,7 z"
       id="path3634"
       sodipodi:nodetypes="ccccc" />
    <path
       style="opacity:0.75;fill:url(#radialGradient3942);fill-opacity:1;stroke:none"
       d="m 30,2 0,32 32,0 C 62,16.326888 47.673112,2 30,2 z"
       id="path5066" />
    <path
       style="fill:#f2c430;fill-opacity:1;stroke:none"
       d="m 25,8 6,0 2,-7 -6,0 -2,7 z"
       id="path3638"
       sodipodi:nodetypes="ccccc" />
    <path
       sodipodi:nodetypes="ccccc"
       id="path3640"
       d="m 37,8 6,0 2,-7 -6,0 -2,7 z"
       style="fill:#f2c430;fill-opacity:1;stroke:none" />
    <path
       style="fill:#f2c430;fill-opacity:1;stroke:none"
       d="m 49,8 5,0 2,-7 -5,0 -2,7 z"
       id="path3642"
       sodipodi:nodetypes="ccccc" />
    <path
       id="path3728"
       d="m 19,8 6,0 2,-7 -6,0 -2,7 z"
       style="fill:#000000;fill-opacity:1;stroke:none" />
    <path
       style="fill:#000000;fill-opacity:1;stroke:none"
       d="M 8,8 15,8 17,1 10,1 8,8 z"
       id="path3730"
       sodipodi:nodetypes="ccccc" />
    <path
       sodipodi:nodetypes="ccccc"
       id="path3732"
       d="m 31,8 6,0 2,-7 -6,0 -2,7 z"
       style="fill:#000000;fill-opacity:1;stroke:none" />
    <path
       style="fill:#000000;fill-opacity:1;stroke:none"
       d="m 43,8 6,0 2,-7 -6,0 -2,7 z"
       id="path3734"
       sodipodi:nodetypes="ccccc" />
    <path
       style="fill:#000000;fill-opacity:1;stroke:none"
       d="M 56,1 54,8 56,8 59.875,4.125 63,5 63,1 61.59375,2.40625 62,1 56,1 z"
       id="path3736" />
    <path
       style="fill:#f2c430;fill-opacity:1;stroke:none"
       d="M 62,1 61.59375,2.40625 63,1 62,1 z"
       id="path3905"
       sodipodi:nodetypes="cccc" />
    <path
       style="fill:#f2c430;fill-opacity:1;stroke:none"
       d="m 63,34 0,-6 -7,-2 0,6 7,2 z"
       id="path3991"
       sodipodi:nodetypes="ccccc" />
    <path
       sodipodi:nodetypes="ccccc"
       id="path3993"
       d="m 63,22 0,-6 -7,-2 0,6 7,2 z"
       style="fill:#f2c430;fill-opacity:1;stroke:none" />
    <path
       style="fill:#f2c430;fill-opacity:1;stroke:none"
       d="M 59.875,4.125 56,8 63,10 63,5 59.875,4.125 z"
       id="path3995" />
    <path
       id="path3997"
       d="m 63,40 0,-6 -7,-2 0,6 7,2 z"
       style="fill:#000000;fill-opacity:1;stroke:none" />
    <path
       sodipodi:nodetypes="ccccc"
       id="path4001"
       d="m 63,28 0,-6 -7,-2 0,6 7,2 z"
       style="fill:#000000;fill-opacity:1;stroke:none" />
    <path
       style="fill:#000000;fill-opacity:1;stroke:none"
       d="m 63,16 0,-6 -7,-2 0,6 7,2 z"
       id="path4003"
       sodipodi:nodetypes="ccccc" />
    <path
       sodipodi:nodetypes="cccc"
       id="path4244"
       d="m -7.25,66.75 -10,10 0,-10 10,0 z"
       style="opacity:0.51829266;fill:#3fd522;fill-opacity:1;stroke:none" />
    <path
       style="fill:#f2c430;fill-opacity:1;stroke:none"
       d="m 13.625,78.375 4,0 2,-7 -4,0 -2,7 z"
       id="path4528"
       sodipodi:nodetypes="ccccc" />
    <path
       id="path4530"
       d="m 1.625,78.375 5,0 2,-7 -5,0 -2,7 z"
       style="fill:#f2c430;fill-opacity:1;stroke:none"
       sodipodi:nodetypes="ccccc" />
    <path
       style="fill:#f2c430;fill-opacity:1;stroke:none"
       d="m 23.625,78.375 6,0 2,-7 -6,0 -2,7 z"
       id="path4532"
       sodipodi:nodetypes="ccccc" />
    <path
       sodipodi:nodetypes="ccccc"
       id="path4534"
       d="m 35.625,78.375 6,0 2,-7 -6,0 -2,7 z"
       style="fill:#f2c430;fill-opacity:1;stroke:none" />
    <path
       style="fill:#f2c430;fill-opacity:1;stroke:none"
       d="m 47.625,78.375 5,0 2,-7 -5,0 -2,7 z"
       id="path4536"
       sodipodi:nodetypes="ccccc" />
    <path
       id="path4538"
       d="m 17.625,78.375 6,0 2,-7 -6,0 -2,7 z"
       style="fill:#000000;fill-opacity:1;stroke:none" />
    <path
       style="fill:#000000;fill-opacity:1;stroke:none"
       d="m 6.625,78.375 7,0 2,-7 -7,0 -2,7 z"
       id="path4540"
       sodipodi:nodetypes="ccccc" />
    <path
       sodipodi:nodetypes="ccccc"
       id="path4542"
       d="m 29.625,78.375 6,0 2,-7 -6,0 -2,7 z"
       style="fill:#000000;fill-opacity:1;stroke:none" />
    <path
       style="fill:#000000;fill-opacity:1;stroke:none"
       d="m 41.625,78.375 6,0 2,-7 -6,0 -2,7 z"
       id="path4544"
       sodipodi:nodetypes="ccccc" />
    <path
       sodipodi:nodetypes="ccccc"
       id="path4546"
       d="m 52.625,78.375 6,0 2,-7 -6,0 -2,7 z"
       style="fill:#000000;fill-opacity:1;stroke:none" />
    <path
       id="path4548"
       d="m -4.375,78.375 6,0 2,-7 -6,0 -2,7 z"
       style="fill:#000000;fill-opacity:1;stroke:none" />
    <path
       sodipodi:nodetypes="ccccc"
       id="path4550"
       d="m 58.625,78.375 6,0 2,-7 -6,0 -2,7 z"
       style="fill:#f2c430;fill-opacity:1;stroke:none" />
    <rect
       style="fill:#000000;fill-opacity:1;stroke:none"
       id="rect2856"
       width="39"
       height="39"
       x="0"
       y="25" />
    <path
       id="path4530-2"
       d="M 3,8 8,8 10,1 5,1 3,8 z"
       style="fill:#f2c430;fill-opacity:1;stroke:none"
       sodipodi:nodetypes="ccccc" />
    <path
       id="path4548-5"
       d="M -3,8 3,8 5,1 -1,1 -3,8 z"
       style="fill:#000000;fill-opacity:1;stroke:none" />
    <g
       id="g3836"
       transform="matrix(0,-1,1,0,19.625,117.625)">
      <path
         sodipodi:nodetypes="ccccc"
         id="path4528-0"
         d="m 73.625,43.375 4,0 2,-7 -4,0 -2,7 z"
         style="fill:#f2c430;fill-opacity:1;stroke:none" />
      <path
         sodipodi:nodetypes="ccccc"
         style="fill:#f2c430;fill-opacity:1;stroke:none"
         d="m 61.625,43.375 5,0 2,-7 -5,0 -2,7 z"
         id="path4530-5" />
      <path
         sodipodi:nodetypes="ccccc"
         id="path4540-6"
         d="m 66.625,43.375 7,0 2,-7 -7,0 -2,7 z"
         style="fill:#000000;fill-opacity:1;stroke:none" />
      <path
         style="fill:#000000;fill-opacity:1;stroke:none"
         d="m 55.625,43.375 6,0 2,-7 -6,0 -2,7 z"
         id="path4548-0" />
    </g>
    <path
       style="fill:#f2c430;fill-opacity:1;stroke:none"
       d="m 63,68 0,-6 -7,-2 0,6 7,2 z"
       id="path3842"
       sodipodi:nodetypes="ccccc" />
    <rect
       style="opacity:0.75;fill:url(#linearGradient3959);fill-opacity:1;stroke:none"
       id="rect3957"
       width="64"
       height="70"
       x="-2.0000002"
       y="34" />
  </g>
</svg>
