<?xml version="1.0" encoding="UTF-8" standalone="no"?>
<!-- Created with Inkscape (http://www.inkscape.org/) -->

<svg
   xmlns:dc="http://purl.org/dc/elements/1.1/"
   xmlns:cc="http://creativecommons.org/ns#"
   xmlns:rdf="http://www.w3.org/1999/02/22-rdf-syntax-ns#"
   xmlns:svg="http://www.w3.org/2000/svg"
   xmlns="http://www.w3.org/2000/svg"
   xmlns:sodipodi="http://sodipodi.sourceforge.net/DTD/sodipodi-0.dtd"
   xmlns:inkscape="http://www.inkscape.org/namespaces/inkscape"
   id="svg2"
   version="1.1"
   inkscape:version="0.48.0 r9654"
   width="64"
   height="64"
   sodipodi:docname="Spin_Bot.svg"
   inkscape:export-filename="/home/bengt/Projekte/FactoryTiles/bot/Spin_Bot/64/Spin_Bot.png"
   inkscape:export-xdpi="90"
   inkscape:export-ydpi="90">
  <metadata
     id="metadata8">
    <rdf:RDF>
      <cc:Work
         rdf:about="">
        <dc:format>image/svg+xml</dc:format>
        <dc:type
           rdf:resource="http://purl.org/dc/dcmitype/StillImage" />
        <dc:title></dc:title>
      </cc:Work>
    </rdf:RDF>
  </metadata>
  <defs
     id="defs6" />
  <sodipodi:namedview
     pagecolor="#ffffff"
     bordercolor="#666666"
     borderopacity="1"
     objecttolerance="10"
     gridtolerance="10"
     guidetolerance="10"
     inkscape:pageopacity="0"
     inkscape:pageshadow="2"
     inkscape:window-width="1280"
     inkscape:window-height="946"
     id="namedview4"
     showgrid="true"
     fit-margin-top="0"
     fit-margin-left="0"
     fit-margin-right="0"
     fit-margin-bottom="0"
     borderlayer="true"
     inkscape:showpageshadow="false"
     inkscape:zoom="16.2"
     inkscape:cx="31.705824"
     inkscape:cy="32.277152"
     inkscape:window-x="0"
     inkscape:window-y="0"
     inkscape:window-maximized="1"
     inkscape:current-layer="svg2">
    <inkscape:grid
       empspacing="8"
       visible="true"
       enabled="true"
       snapvisiblegridlinesonly="true"
       type="xygrid"
       id="grid2987" />
  </sodipodi:namedview>
  <path
     sodipodi:type="arc"
     style="fill:#000000;fill-opacity:1;stroke:none"
     id="path3914"
     sodipodi:cx="35"
     sodipodi:cy="11"
     sodipodi:rx="3"
     sodipodi:ry="3"
     d="m 38,11 a 3,3 0 1 1 -6,0 3,3 0 1 1 6,0 z"
     transform="translate(-1,6)" />
  <path
     transform="translate(-5,6)"
     d="m 38,11 a 3,3 0 1 1 -6,0 3,3 0 1 1 6,0 z"
     sodipodi:ry="3"
     sodipodi:rx="3"
     sodipodi:cy="11"
     sodipodi:cx="35"
     id="path3916"
     style="fill:#000000;fill-opacity:1;stroke:none"
     sodipodi:type="arc" />
  <rect
     style="fill:#000000;fill-opacity:1;stroke:none"
     id="rect3824"
     width="32"
     height="4"
     x="16"
     y="30" />
  <rect
     y="31"
     x="16"
     height="2"
     width="32"
     id="rect3826"
     style="fill:#ffffff;fill-opacity:1;stroke:none" />
  <g
     id="g3761">
    <path
       transform="translate(-1,-3)"
       d="m 44,35 a 11,11 0 1 1 -22,0 11,11 0 1 1 22,0 z"
       sodipodi:ry="11"
       sodipodi:rx="11"
       sodipodi:cy="35"
       sodipodi:cx="33"
       id="path2989"
       style="fill:#000000;fill-opacity:1;stroke:none"
       sodipodi:type="arc" />
    <path
       sodipodi:type="arc"
       style="fill:#ffffff;fill-opacity:1;stroke:none"
       id="path2991"
       sodipodi:cx="33"
       sodipodi:cy="35"
       sodipodi:rx="10"
       sodipodi:ry="10"
       d="m 43,35 a 10,10 0 1 1 -20,0 10,10 0 1 1 20,0 z"
       transform="translate(-1,-3)" />
  </g>
  <path
     sodipodi:type="arc"
     style="fill:#000000;fill-opacity:1;stroke:none"
     id="path3775"
     sodipodi:cx="0"
     sodipodi:cy="0"
     sodipodi:rx="0"
     sodipodi:ry="0"
     d="M 0,0 A 0,0 0 1 1 0,0 0,0 0 1 1 0,0 z" />
  <path
     sodipodi:end="2.2465678"
     sodipodi:start="0.89141737"
     transform="translate(0,16)"
     d="m 37.65479,23.001668 a 9,9 0 0 1 -11.284285,0.02035 L 32,16 z"
     sodipodi:ry="9"
     sodipodi:rx="9"
     sodipodi:cy="16"
     sodipodi:cx="32"
     id="path3784"
     style="fill:#000000;fill-opacity:1;stroke:none"
     sodipodi:type="arc" />
  <path
     sodipodi:type="arc"
     style="fill:#ffffff;fill-opacity:1;stroke:none"
     id="path3778"
     sodipodi:cx="32"
     sodipodi:cy="16"
     sodipodi:rx="8"
     sodipodi:ry="8"
     d="m 36,22.928203 a 8,8 0 0 1 -8,0 L 32,16 z"
     transform="translate(0,16)"
     sodipodi:start="1.0471976"
     sodipodi:end="2.0943951" />
  <path
     sodipodi:type="arc"
     style="fill:#000000;fill-opacity:1;stroke:none"
     id="path2998"
     sodipodi:cx="32"
     sodipodi:cy="16"
     sodipodi:rx="7"
     sodipodi:ry="7"
     d="m 39,16 a 7,7 0 1 1 -14,0 7,7 0 1 1 14,0 z"
     transform="translate(0,16)" />
  <path
     transform="translate(0,16)"
     d="m 38,16 a 6,6 0 1 1 -12,0 6,6 0 1 1 12,0 z"
     sodipodi:ry="6"
     sodipodi:rx="6"
     sodipodi:cy="16"
     sodipodi:cx="32"
     id="path3000"
     style="fill:#ffffff;fill-opacity:1;stroke:none"
     sodipodi:type="arc" />
  <g
     id="g3855"
     transform="translate(1.0000002e-8,-1)">
    <path
       sodipodi:type="arc"
       style="fill:#000000;fill-opacity:1;stroke:none"
       id="path3853"
       sodipodi:cx="11.5"
       sodipodi:cy="27.5"
       sodipodi:rx="4.6666665"
       sodipodi:ry="4.6666665"
       d="m 6.8333335,27.5 c 10e-8,-2.577329 2.089338,-4.666667 4.6666665,-4.666667 2.577329,1e-6 4.666666,2.089338 4.666667,4.666667 L 11.5,27.5 z"
       transform="matrix(0.85714286,0,0,0.85714286,2.1428571,8.4285714)"
       sodipodi:start="3.1415927"
       sodipodi:end="6.2831853" />
    <path
       transform="matrix(0.85714286,0,0,0.85714286,2.1428571,8.4285714)"
       d="m 8,27.5 c 10e-8,-1.932997 1.5670035,-3.5 3.5,-3.5 1.932997,0 3.5,1.567003 3.5,3.5 l -3.5,0 z"
       sodipodi:ry="3.5"
       sodipodi:rx="3.5"
       sodipodi:cy="27.5"
       sodipodi:cx="11.5"
       id="path3847"
       style="fill:#ffffff;fill-opacity:1;stroke:none"
       sodipodi:type="arc"
       sodipodi:start="3.1415927"
       sodipodi:end="6.2831853" />
  </g>
  <g
     transform="matrix(1,0,0,-1,1.0000001e-8,65)"
     id="g3867">
    <path
       sodipodi:end="6.2831853"
       sodipodi:start="3.1415927"
       transform="matrix(0.85714286,0,0,0.85714286,2.1428571,8.4285714)"
       d="m 6.8333335,27.5 c 10e-8,-2.577329 2.089338,-4.666667 4.6666665,-4.666667 2.577329,1e-6 4.666666,2.089338 4.666667,4.666667 L 11.5,27.5 z"
       sodipodi:ry="4.6666665"
       sodipodi:rx="4.6666665"
       sodipodi:cy="27.5"
       sodipodi:cx="11.5"
       id="path3869"
       style="fill:#000000;fill-opacity:1;stroke:none"
       sodipodi:type="arc" />
    <path
       sodipodi:end="6.2831853"
       sodipodi:start="3.1415927"
       sodipodi:type="arc"
       style="fill:#ffffff;fill-opacity:1;stroke:none"
       id="path3871"
       sodipodi:cx="11.5"
       sodipodi:cy="27.5"
       sodipodi:rx="3.5"
       sodipodi:ry="3.5"
       d="m 8,27.5 c 10e-8,-1.932997 1.5670035,-3.5 3.5,-3.5 1.932997,0 3.5,1.567003 3.5,3.5 l -3.5,0 z"
       transform="matrix(0.85714286,0,0,0.85714286,2.1428571,8.4285714)" />
  </g>
  <rect
     style="fill:#000000;fill-opacity:1;stroke:none"
     id="rect3841"
     width="8"
     height="4"
     x="8"
     y="30" />
  <rect
     y="31"
     x="9"
     height="2"
     width="6"
     id="rect3843"
     style="fill:#ffffff;fill-opacity:1;stroke:none" />
  <g
     transform="translate(40,-1)"
     id="g3873">
    <path
       sodipodi:end="6.2831853"
       sodipodi:start="3.1415927"
       transform="matrix(0.85714286,0,0,0.85714286,2.1428571,8.4285714)"
       d="m 6.8333335,27.5 c 10e-8,-2.577329 2.089338,-4.666667 4.6666665,-4.666667 2.577329,1e-6 4.666666,2.089338 4.666667,4.666667 L 11.5,27.5 z"
       sodipodi:ry="4.6666665"
       sodipodi:rx="4.6666665"
       sodipodi:cy="27.5"
       sodipodi:cx="11.5"
       id="path3875"
       style="fill:#000000;fill-opacity:1;stroke:none"
       sodipodi:type="arc" />
    <path
       sodipodi:end="6.2831853"
       sodipodi:start="3.1415927"
       sodipodi:type="arc"
       style="fill:#ffffff;fill-opacity:1;stroke:none"
       id="path3877"
       sodipodi:cx="11.5"
       sodipodi:cy="27.5"
       sodipodi:rx="3.5"
       sodipodi:ry="3.5"
       d="m 8,27.5 c 10e-8,-1.932997 1.5670035,-3.5 3.5,-3.5 1.932997,0 3.5,1.567003 3.5,3.5 l -3.5,0 z"
       transform="matrix(0.85714286,0,0,0.85714286,2.1428571,8.4285714)" />
  </g>
  <g
     id="g3883"
     transform="matrix(1,0,0,-1,40,65)">
    <path
       sodipodi:type="arc"
       style="fill:#000000;fill-opacity:1;stroke:none"
       id="path3885"
       sodipodi:cx="11.5"
       sodipodi:cy="27.5"
       sodipodi:rx="4.6666665"
       sodipodi:ry="4.6666665"
       d="m 6.8333335,27.5 c 10e-8,-2.577329 2.089338,-4.666667 4.6666665,-4.666667 2.577329,1e-6 4.666666,2.089338 4.666667,4.666667 L 11.5,27.5 z"
       transform="matrix(0.85714286,0,0,0.85714286,2.1428571,8.4285714)"
       sodipodi:start="3.1415927"
       sodipodi:end="6.2831853" />
    <path
       transform="matrix(0.85714286,0,0,0.85714286,2.1428571,8.4285714)"
       d="m 8,27.5 c 10e-8,-1.932997 1.5670035,-3.5 3.5,-3.5 1.932997,0 3.5,1.567003 3.5,3.5 l -3.5,0 z"
       sodipodi:ry="3.5"
       sodipodi:rx="3.5"
       sodipodi:cy="27.5"
       sodipodi:cx="11.5"
       id="path3887"
       style="fill:#ffffff;fill-opacity:1;stroke:none"
       sodipodi:type="arc"
       sodipodi:start="3.1415927"
       sodipodi:end="6.2831853" />
  </g>
  <rect
     y="30"
     x="48"
     height="4"
     width="8"
     id="rect3879"
     style="fill:#000000;fill-opacity:1;stroke:none" />
  <rect
     style="fill:#ffffff;fill-opacity:1;stroke:none"
     id="rect3881"
     width="6"
     height="2"
     x="49"
     y="31" />
  <path
     transform="translate(-1,6)"
     d="m 37,11 a 2,2 0 1 1 -4,0 2,2 0 1 1 4,0 z"
     sodipodi:ry="2"
     sodipodi:rx="2"
     sodipodi:cy="11"
     sodipodi:cx="35"
     id="path3939"
     style="fill:#ffffff;fill-opacity:1;stroke:none"
     sodipodi:type="arc" />
  <path
     sodipodi:type="arc"
     style="fill:#ffffff;fill-opacity:1;stroke:none"
     id="path3934"
     sodipodi:cx="35"
     sodipodi:cy="11"
     sodipodi:rx="2"
     sodipodi:ry="2"
     d="m 37,11 a 2,2 0 1 1 -4,0 2,2 0 1 1 4,0 z"
     transform="translate(-5,6)" />
  <path
     style="fill:#000000;fill-opacity:1;stroke:none"
     d="M 26 16 L 26 21 L 28 21 L 28 32 C 28 34.209139 29.790861 36 32 36 C 34.209139 36 36 34.209139 36 32 L 36 21 L 38 21 L 38 16 L 26 16 z "
     id="rect3889" />
  <path
     style="fill:#ffffff;fill-opacity:1;stroke:none"
     d="m 29,22 0,10 c 0,1.656854 1.343146,3 3,3 1.656854,0 3,-1.343146 3,-3 l 0,-10 z"
     id="rect3898"
     inkscape:connector-curvature="0"
     sodipodi:nodetypes="cssscc" />
  <rect
     y="17"
     x="27"
     height="3"
     width="10"
     id="rect3906"
     style="fill:#ffffff;fill-opacity:1;stroke:none" />
  <rect
     style="fill:#000000;fill-opacity:1;stroke:none"
     id="rect3910"
     width="1"
     height="3"
     x="29"
     y="17" />
  <rect
     y="17"
     x="34"
     height="3"
     width="1"
     id="rect3912"
     style="fill:#000000;fill-opacity:1;stroke:none" />
  <rect
     y="23"
     x="29"
     height="1"
     width="6"
     id="rect3922"
     style="fill:#000000;fill-opacity:1;stroke:none" />
  <rect
     style="fill:#000000;fill-opacity:1;stroke:none"
     id="rect3924"
     width="6"
     height="1"
     x="29"
     y="25" />
  <rect
     y="27"
     x="29"
     height="1"
     width="6"
     id="rect3926"
     style="fill:#000000;fill-opacity:1;stroke:none" />
  <rect
     style="fill:#000000;fill-opacity:1;stroke:none"
     id="rect3928"
     width="6"
     height="1"
     x="29"
     y="29" />
  <rect
     y="31"
     x="29"
     height="1"
     width="6"
     id="rect3930"
     style="fill:#000000;fill-opacity:1;stroke:none" />
  <rect
     style="fill:#000000;fill-opacity:1;stroke:none"
     id="rect3932"
     width="6"
     height="1"
     x="29"
     y="33" />
</svg>
